<svg width="331" height="170" viewBox="0 0 331 170" fill="none" xmlns="http://www.w3.org/2000/svg">
<path d="M179.646 135.465C90.2774 170.035 10.4808 179.06 1.41506 155.623C-7.65073 132.187 57.4473 85.1632 146.816 50.5937C236.184 16.0242 315.98 6.99917 325.046 30.4358C332.471 49.6296 290.154 84.6429 225.5 115.68" stroke="#D8BFA9" stroke-width="0.5" stroke-dasharray="9 9"/>
<path d="M324.5 34C324.5 34 324.795 37.3933 326.201 38.7994C327.607 40.2055 331 40.5 331 40.5C331 40.5 327.607 40.7945 326.201 42.2006C324.795 43.6067 324.5 47 324.5 47C324.5 47 324.205 43.6067 322.799 42.2006C321.393 40.7945 318 40.5 318 40.5C318 40.5 321.393 40.2055 322.799 38.7994C324.205 37.3933 324.5 34 324.5 34Z" fill="#D8BFA9"/>
<path d="M314 -3.05176e-05C314 -3.05176e-05 314.77 8.87488 318.448 12.5523C322.125 16.2297 331 17 331 17C331 17 322.125 17.7703 318.448 21.4477C314.77 25.1251 314 34 314 34C314 34 313.23 25.1251 309.552 21.4477C305.875 17.7703 297 17 297 17C297 17 305.875 16.2297 309.552 12.5523C313.23 8.87488 314 -3.05176e-05 314 -3.05176e-05Z" fill="#D8BFA9"/>
</svg>
