<svg width="145" height="78" viewBox="0 0 145 78" fill="none" xmlns="http://www.w3.org/2000/svg">
    <path
        d="M66 65C27.0243 80.0766 5.11281 79.3258 1.159 69.1045C-2.79481 58.8832 25.596 38.3752 64.5717 23.2986C103.547 8.22201 138.349 4.28599 142.302 14.5073C145.54 22.8781 132.197 35.4642 104 49"
        stroke="#D8BFA9" stroke-width="0.5" stroke-dasharray="7 7" />
    <path
        d="M136.5 0C136.5 0 136.885 4.43746 138.724 6.27615C140.563 8.11484 145 8.5 145 8.5C145 8.5 140.563 8.88516 138.724 10.7239C136.885 12.5625 136.5 17 136.5 17C136.5 17 136.115 12.5625 134.276 10.7239C132.437 8.88516 128 8.5 128 8.5C128 8.5 132.437 8.11484 134.276 6.27615C136.115 4.43746 136.5 0 136.5 0Z"
        fill="#D8BFA9" />
</svg>
    